<?xml version="1.0" encoding="UTF-8"?><svg id="Layer_2" xmlns="http://www.w3.org/2000/svg" viewBox="0 0 20.71 101.06"><defs><style>.cls-1{fill:#463e31;stroke-width:0px;}</style></defs><g id="Layer_1-2"><path class="cls-1" d="M10.36,101.06c2.55-.04,5.21-1.06,7.18-3.03h0s0,0,0,0c1.98-1.98,2.99-4.54,3.03-7.09s-.89-5.08-2.8-6.99h0s0,0,0,0c-.94-.94-9.7-12.56-3.97-32.58,1.72-6,4.19-4.22,6.64-12.89C22.67,30.52,10.68,1.14,10.36,0v101.06Z"/><path class="cls-1" d="M10.36,101.06c-2.55-.04-5.21-1.06-7.18-3.03h0s0,0,0,0c-1.98-1.98-2.99-4.54-3.03-7.09s.89-5.08,2.8-6.99h0s0,0,0,0c.94-.94,9.7-12.56,3.97-32.58-1.72-6-4.19-4.22-6.64-12.89C-1.96,30.52,10.03,1.14,10.36,0v101.06Z"/></g></svg>